<svg xmlns="http://www.w3.org/2000/svg" xmlns:xlink="http://www.w3.org/1999/xlink" width="1080" zoomAndPan="magnify" viewBox="0 0 810 809.999993" height="1080" preserveAspectRatio="xMidYMid meet" version="1.0"><defs><clipPath id="990e4429b4"><path d="M 81 81 L 729 81 L 729 729 L 81 729 Z M 81 81 " clip-rule="nonzero"/></clipPath><clipPath id="96ee40360e"><path d="M 405 81 C 410.300781 81 415.601562 81.128906 420.898438 81.390625 C 426.195312 81.652344 431.480469 82.039062 436.757812 82.558594 C 442.035156 83.078125 447.296875 83.730469 452.539062 84.507812 C 457.785156 85.285156 463.007812 86.191406 468.210938 87.226562 C 473.410156 88.261719 478.582031 89.421875 483.726562 90.710938 C 488.871094 92 493.976562 93.410156 499.050781 94.953125 C 504.125 96.492188 509.160156 98.152344 514.152344 99.941406 C 519.144531 101.726562 524.089844 103.632812 528.988281 105.664062 C 533.886719 107.691406 538.734375 109.839844 543.527344 112.109375 C 548.320312 114.375 553.054688 116.757812 557.734375 119.257812 C 562.410156 121.757812 567.019531 124.371094 571.570312 127.097656 C 576.117188 129.820312 580.597656 132.65625 585.003906 135.605469 C 589.414062 138.550781 593.746094 141.601562 598.007812 144.761719 C 602.265625 147.917969 606.445312 151.179688 610.542969 154.542969 C 614.640625 157.910156 618.65625 161.371094 622.585938 164.933594 C 626.515625 168.492188 630.351562 172.148438 634.101562 175.898438 C 637.851562 179.648438 641.507812 183.484375 645.066406 187.414062 C 648.628906 191.34375 652.089844 195.359375 655.457031 199.457031 C 658.820312 203.554688 662.082031 207.734375 665.238281 211.992188 C 668.398438 216.253906 671.449219 220.585938 674.394531 224.996094 C 677.34375 229.402344 680.179688 233.882812 682.902344 238.429688 C 685.628906 242.980469 688.242188 247.589844 690.742188 252.265625 C 693.242188 256.945312 695.625 261.679688 697.890625 266.472656 C 700.160156 271.265625 702.308594 276.113281 704.335938 281.011719 C 706.367188 285.910156 708.273438 290.855469 710.058594 295.847656 C 711.847656 300.839844 713.507812 305.875 715.046875 310.949219 C 716.585938 316.023438 718 321.128906 719.289062 326.273438 C 720.578125 331.417969 721.738281 336.589844 722.773438 341.789062 C 723.808594 346.992188 724.714844 352.214844 725.492188 357.460938 C 726.269531 362.703125 726.921875 367.964844 727.441406 373.242188 C 727.960938 378.519531 728.347656 383.804688 728.609375 389.101562 C 728.871094 394.398438 729 399.699219 729 405 C 729 410.300781 728.871094 415.601562 728.609375 420.898438 C 728.347656 426.195312 727.960938 431.480469 727.441406 436.757812 C 726.921875 442.035156 726.269531 447.296875 725.492188 452.539062 C 724.714844 457.785156 723.808594 463.007812 722.773438 468.210938 C 721.738281 473.410156 720.578125 478.582031 719.289062 483.726562 C 718 488.871094 716.589844 493.976562 715.046875 499.050781 C 713.507812 504.125 711.847656 509.160156 710.058594 514.152344 C 708.273438 519.144531 706.367188 524.089844 704.335938 528.988281 C 702.308594 533.886719 700.160156 538.734375 697.890625 543.527344 C 695.625 548.320312 693.242188 553.054688 690.742188 557.734375 C 688.242188 562.410156 685.628906 567.019531 682.902344 571.570312 C 680.179688 576.117188 677.34375 580.597656 674.394531 585.003906 C 671.449219 589.414062 668.398438 593.746094 665.238281 598.007812 C 662.082031 602.265625 658.820312 606.445312 655.457031 610.542969 C 652.089844 614.640625 648.628906 618.65625 645.066406 622.585938 C 641.507812 626.515625 637.851562 630.351562 634.101562 634.101562 C 630.351562 637.851562 626.515625 641.507812 622.585938 645.066406 C 618.65625 648.628906 614.640625 652.089844 610.542969 655.457031 C 606.445312 658.820312 602.265625 662.082031 598.007812 665.238281 C 593.746094 668.398438 589.414062 671.449219 585.003906 674.394531 C 580.597656 677.34375 576.117188 680.179688 571.570312 682.902344 C 567.019531 685.628906 562.410156 688.242188 557.734375 690.742188 C 553.054688 693.242188 548.320312 695.625 543.527344 697.890625 C 538.734375 700.160156 533.886719 702.308594 528.988281 704.335938 C 524.089844 706.367188 519.144531 708.273438 514.152344 710.058594 C 509.160156 711.847656 504.125 713.507812 499.050781 715.046875 C 493.976562 716.585938 488.871094 718 483.726562 719.289062 C 478.582031 720.578125 473.410156 721.738281 468.210938 722.773438 C 463.007812 723.808594 457.785156 724.714844 452.539062 725.492188 C 447.296875 726.269531 442.035156 726.921875 436.757812 727.441406 C 431.480469 727.960938 426.195312 728.347656 420.898438 728.609375 C 415.601562 728.871094 410.300781 729 405 729 C 399.699219 729 394.398438 728.871094 389.101562 728.609375 C 383.804688 728.347656 378.519531 727.960938 373.242188 727.441406 C 367.964844 726.921875 362.703125 726.269531 357.460938 725.492188 C 352.214844 724.714844 346.992188 723.808594 341.789062 722.773438 C 336.589844 721.738281 331.417969 720.578125 326.273438 719.289062 C 321.128906 718 316.023438 716.585938 310.949219 715.046875 C 305.875 713.507812 300.839844 711.847656 295.847656 710.058594 C 290.855469 708.273438 285.910156 706.367188 281.011719 704.335938 C 276.113281 702.308594 271.265625 700.160156 266.472656 697.890625 C 261.679688 695.625 256.945312 693.242188 252.265625 690.742188 C 247.589844 688.242188 242.980469 685.628906 238.429688 682.902344 C 233.882812 680.179688 229.402344 677.34375 224.996094 674.394531 C 220.585938 671.449219 216.253906 668.398438 211.992188 665.238281 C 207.734375 662.082031 203.554688 658.820312 199.457031 655.457031 C 195.359375 652.089844 191.34375 648.628906 187.414062 645.066406 C 183.484375 641.507812 179.648438 637.851562 175.898438 634.101562 C 172.148438 630.351562 168.492188 626.515625 164.933594 622.585938 C 161.371094 618.65625 157.910156 614.640625 154.542969 610.542969 C 151.179688 606.445312 147.917969 602.265625 144.761719 598.007812 C 141.601562 593.746094 138.550781 589.414062 135.605469 585.003906 C 132.65625 580.597656 129.820312 576.117188 127.097656 571.570312 C 124.371094 567.019531 121.757812 562.410156 119.257812 557.734375 C 116.757812 553.054688 114.375 548.320312 112.109375 543.527344 C 109.839844 538.734375 107.691406 533.886719 105.664062 528.988281 C 103.632812 524.089844 101.726562 519.144531 99.941406 514.152344 C 98.152344 509.160156 96.492188 504.125 94.953125 499.050781 C 93.410156 493.976562 92 488.871094 90.710938 483.726562 C 89.421875 478.582031 88.261719 473.410156 87.226562 468.210938 C 86.191406 463.007812 85.285156 457.785156 84.507812 452.539062 C 83.730469 447.296875 83.078125 442.035156 82.558594 436.757812 C 82.039062 431.480469 81.652344 426.195312 81.390625 420.898438 C 81.128906 415.601562 81 410.300781 81 405 C 81 399.699219 81.128906 394.398438 81.390625 389.101562 C 81.652344 383.804688 82.039062 378.519531 82.558594 373.242188 C 83.078125 367.964844 83.730469 362.703125 84.507812 357.460938 C 85.285156 352.214844 86.191406 346.992188 87.226562 341.789062 C 88.261719 336.589844 89.421875 331.417969 90.710938 326.273438 C 92 321.128906 93.410156 316.023438 94.953125 310.949219 C 96.492188 305.875 98.152344 300.839844 99.941406 295.847656 C 101.726562 290.855469 103.632812 285.910156 105.664062 281.011719 C 107.691406 276.113281 109.839844 271.265625 112.109375 266.472656 C 114.375 261.679688 116.757812 256.945312 119.257812 252.265625 C 121.757812 247.589844 124.371094 242.980469 127.097656 238.429688 C 129.820312 233.882812 132.65625 229.402344 135.605469 224.996094 C 138.550781 220.585938 141.601562 216.253906 144.761719 211.992188 C 147.917969 207.734375 151.179688 203.554688 154.542969 199.457031 C 157.910156 195.359375 161.371094 191.34375 164.933594 187.414062 C 168.492188 183.484375 172.148438 179.648438 175.898438 175.898438 C 179.648438 172.148438 183.484375 168.492188 187.414062 164.933594 C 191.34375 161.371094 195.359375 157.910156 199.457031 154.542969 C 203.554688 151.179688 207.734375 147.917969 211.992188 144.761719 C 216.253906 141.601562 220.585938 138.550781 224.996094 135.605469 C 229.402344 132.65625 233.882812 129.820312 238.429688 127.097656 C 242.980469 124.371094 247.589844 121.757812 252.265625 119.257812 C 256.945312 116.757812 261.679688 114.375 266.472656 112.109375 C 271.265625 109.839844 276.113281 107.691406 281.011719 105.664062 C 285.910156 103.632812 290.855469 101.726562 295.847656 99.941406 C 300.839844 98.152344 305.875 96.492188 310.949219 94.953125 C 316.023438 93.414062 321.128906 92 326.273438 90.710938 C 331.417969 89.421875 336.589844 88.261719 341.789062 87.226562 C 346.992188 86.191406 352.214844 85.285156 357.460938 84.507812 C 362.703125 83.730469 367.964844 83.078125 373.242188 82.558594 C 378.519531 82.039062 383.804688 81.652344 389.101562 81.390625 C 394.398438 81.128906 399.699219 81 405 81 Z M 405 81 " clip-rule="nonzero"/></clipPath><linearGradient x1="0.0000000187268" gradientTransform="matrix(0.000000000000039679, -648.000054, 648.000054, 0.000000000000039679, 81.000003, 729.000011)" y1="0.0000000185431" x2="1.004902" gradientUnits="userSpaceOnUse" y2="0.995049" id="60970782b8"><stop stop-opacity="1" stop-color="rgb(99.998474%, 8.599854%, 8.599854%)" offset="0"/><stop stop-opacity="1" stop-color="rgb(99.647522%, 8.609009%, 8.638%)" offset="0.00390625"/><stop stop-opacity="1" stop-color="rgb(99.29657%, 8.618164%, 8.677673%)" offset="0.0078125"/><stop stop-opacity="1" stop-color="rgb(98.945618%, 8.627319%, 8.717346%)" offset="0.0117188"/><stop stop-opacity="1" stop-color="rgb(98.594666%, 8.636475%, 8.757019%)" offset="0.015625"/><stop stop-opacity="1" stop-color="rgb(98.242188%, 8.64563%, 8.795166%)" offset="0.0195313"/><stop stop-opacity="1" stop-color="rgb(97.891235%, 8.654785%, 8.834839%)" offset="0.0234375"/><stop stop-opacity="1" stop-color="rgb(97.540283%, 8.66394%, 8.874512%)" offset="0.0273437"/><stop stop-opacity="1" stop-color="rgb(97.189331%, 8.673096%, 8.914185%)" offset="0.03125"/><stop stop-opacity="1" stop-color="rgb(96.836853%, 8.682251%, 8.953857%)" offset="0.0351562"/><stop stop-opacity="1" stop-color="rgb(96.485901%, 8.691406%, 8.99353%)" offset="0.0390625"/><stop stop-opacity="1" stop-color="rgb(96.134949%, 8.700562%, 9.031677%)" offset="0.0429688"/><stop stop-opacity="1" stop-color="rgb(95.783997%, 8.709717%, 9.07135%)" offset="0.046875"/><stop stop-opacity="1" stop-color="rgb(95.433044%, 8.718872%, 9.111023%)" offset="0.0507812"/><stop stop-opacity="1" stop-color="rgb(95.082092%, 8.729553%, 9.150696%)" offset="0.0546875"/><stop stop-opacity="1" stop-color="rgb(94.729614%, 8.738708%, 9.188843%)" offset="0.0585938"/><stop stop-opacity="1" stop-color="rgb(94.378662%, 8.747864%, 9.228516%)" offset="0.0625"/><stop stop-opacity="1" stop-color="rgb(94.02771%, 8.757019%, 9.268188%)" offset="0.0664062"/><stop stop-opacity="1" stop-color="rgb(93.676758%, 8.766174%, 9.307861%)" offset="0.0703125"/><stop stop-opacity="1" stop-color="rgb(93.32428%, 8.77533%, 9.347534%)" offset="0.0742187"/><stop stop-opacity="1" stop-color="rgb(92.973328%, 8.784485%, 9.387207%)" offset="0.078125"/><stop stop-opacity="1" stop-color="rgb(92.622375%, 8.79364%, 9.425354%)" offset="0.0820312"/><stop stop-opacity="1" stop-color="rgb(92.271423%, 8.802795%, 9.465027%)" offset="0.0859375"/><stop stop-opacity="1" stop-color="rgb(91.918945%, 8.811951%, 9.5047%)" offset="0.0898437"/><stop stop-opacity="1" stop-color="rgb(91.567993%, 8.821106%, 9.544373%)" offset="0.09375"/><stop stop-opacity="1" stop-color="rgb(91.217041%, 8.830261%, 9.58252%)" offset="0.0976562"/><stop stop-opacity="1" stop-color="rgb(90.866089%, 8.839417%, 9.622192%)" offset="0.101562"/><stop stop-opacity="1" stop-color="rgb(90.515137%, 8.848572%, 9.661865%)" offset="0.105469"/><stop stop-opacity="1" stop-color="rgb(90.164185%, 8.859253%, 9.701538%)" offset="0.109375"/><stop stop-opacity="1" stop-color="rgb(89.811707%, 8.868408%, 9.741211%)" offset="0.113281"/><stop stop-opacity="1" stop-color="rgb(89.460754%, 8.877563%, 9.780884%)" offset="0.117187"/><stop stop-opacity="1" stop-color="rgb(89.109802%, 8.886719%, 9.819031%)" offset="0.121094"/><stop stop-opacity="1" stop-color="rgb(88.75885%, 8.895874%, 9.858704%)" offset="0.125"/><stop stop-opacity="1" stop-color="rgb(88.406372%, 8.905029%, 9.898376%)" offset="0.128906"/><stop stop-opacity="1" stop-color="rgb(88.05542%, 8.914185%, 9.938049%)" offset="0.132812"/><stop stop-opacity="1" stop-color="rgb(87.704468%, 8.92334%, 9.977722%)" offset="0.136719"/><stop stop-opacity="1" stop-color="rgb(87.353516%, 8.932495%, 10.017395%)" offset="0.140625"/><stop stop-opacity="1" stop-color="rgb(87.001038%, 8.94165%, 10.055542%)" offset="0.144531"/><stop stop-opacity="1" stop-color="rgb(86.650085%, 8.950806%, 10.095215%)" offset="0.148438"/><stop stop-opacity="1" stop-color="rgb(86.299133%, 8.959961%, 10.134888%)" offset="0.152344"/><stop stop-opacity="1" stop-color="rgb(85.948181%, 8.969116%, 10.174561%)" offset="0.15625"/><stop stop-opacity="1" stop-color="rgb(85.597229%, 8.978271%, 10.212708%)" offset="0.160156"/><stop stop-opacity="1" stop-color="rgb(85.246277%, 8.988953%, 10.25238%)" offset="0.164062"/><stop stop-opacity="1" stop-color="rgb(84.893799%, 8.998108%, 10.292053%)" offset="0.167969"/><stop stop-opacity="1" stop-color="rgb(84.542847%, 9.007263%, 10.331726%)" offset="0.171875"/><stop stop-opacity="1" stop-color="rgb(84.191895%, 9.016418%, 10.371399%)" offset="0.175781"/><stop stop-opacity="1" stop-color="rgb(83.840942%, 9.025574%, 10.411072%)" offset="0.179687"/><stop stop-opacity="1" stop-color="rgb(83.488464%, 9.034729%, 10.449219%)" offset="0.183594"/><stop stop-opacity="1" stop-color="rgb(83.137512%, 9.043884%, 10.488892%)" offset="0.1875"/><stop stop-opacity="1" stop-color="rgb(82.78656%, 9.05304%, 10.528564%)" offset="0.191406"/><stop stop-opacity="1" stop-color="rgb(82.435608%, 9.062195%, 10.568237%)" offset="0.195313"/><stop stop-opacity="1" stop-color="rgb(82.084656%, 9.07135%, 10.606384%)" offset="0.199219"/><stop stop-opacity="1" stop-color="rgb(81.733704%, 9.080505%, 10.646057%)" offset="0.203125"/><stop stop-opacity="1" stop-color="rgb(81.381226%, 9.089661%, 10.68573%)" offset="0.207031"/><stop stop-opacity="1" stop-color="rgb(81.030273%, 9.098816%, 10.725403%)" offset="0.210938"/><stop stop-opacity="1" stop-color="rgb(80.679321%, 9.107971%, 10.765076%)" offset="0.214844"/><stop stop-opacity="1" stop-color="rgb(80.328369%, 9.118652%, 10.804749%)" offset="0.21875"/><stop stop-opacity="1" stop-color="rgb(79.975891%, 9.127808%, 10.842896%)" offset="0.222656"/><stop stop-opacity="1" stop-color="rgb(79.624939%, 9.136963%, 10.882568%)" offset="0.226562"/><stop stop-opacity="1" stop-color="rgb(79.273987%, 9.146118%, 10.922241%)" offset="0.230469"/><stop stop-opacity="1" stop-color="rgb(78.923035%, 9.155273%, 10.961914%)" offset="0.234375"/><stop stop-opacity="1" stop-color="rgb(78.570557%, 9.164429%, 11.000061%)" offset="0.238281"/><stop stop-opacity="1" stop-color="rgb(78.219604%, 9.173584%, 11.039734%)" offset="0.242188"/><stop stop-opacity="1" stop-color="rgb(77.868652%, 9.182739%, 11.079407%)" offset="0.246094"/><stop stop-opacity="1" stop-color="rgb(77.5177%, 9.191895%, 11.11908%)" offset="0.25"/><stop stop-opacity="1" stop-color="rgb(77.166748%, 9.20105%, 11.158752%)" offset="0.253906"/><stop stop-opacity="1" stop-color="rgb(76.815796%, 9.210205%, 11.198425%)" offset="0.257812"/><stop stop-opacity="1" stop-color="rgb(76.463318%, 9.21936%, 11.236572%)" offset="0.261719"/><stop stop-opacity="1" stop-color="rgb(76.112366%, 9.228516%, 11.276245%)" offset="0.265625"/><stop stop-opacity="1" stop-color="rgb(75.761414%, 9.237671%, 11.315918%)" offset="0.269531"/><stop stop-opacity="1" stop-color="rgb(75.410461%, 9.248352%, 11.355591%)" offset="0.273438"/><stop stop-opacity="1" stop-color="rgb(75.057983%, 9.257507%, 11.393738%)" offset="0.277344"/><stop stop-opacity="1" stop-color="rgb(74.707031%, 9.266663%, 11.433411%)" offset="0.28125"/><stop stop-opacity="1" stop-color="rgb(74.356079%, 9.275818%, 11.473083%)" offset="0.285156"/><stop stop-opacity="1" stop-color="rgb(74.005127%, 9.284973%, 11.512756%)" offset="0.289062"/><stop stop-opacity="1" stop-color="rgb(73.652649%, 9.294128%, 11.552429%)" offset="0.292969"/><stop stop-opacity="1" stop-color="rgb(73.301697%, 9.303284%, 11.592102%)" offset="0.296875"/><stop stop-opacity="1" stop-color="rgb(72.950745%, 9.312439%, 11.630249%)" offset="0.300781"/><stop stop-opacity="1" stop-color="rgb(72.599792%, 9.321594%, 11.669922%)" offset="0.304687"/><stop stop-opacity="1" stop-color="rgb(72.24884%, 9.33075%, 11.709595%)" offset="0.308594"/><stop stop-opacity="1" stop-color="rgb(71.897888%, 9.339905%, 11.749268%)" offset="0.3125"/><stop stop-opacity="1" stop-color="rgb(71.54541%, 9.34906%, 11.78894%)" offset="0.316406"/><stop stop-opacity="1" stop-color="rgb(71.194458%, 9.358215%, 11.828613%)" offset="0.320312"/><stop stop-opacity="1" stop-color="rgb(70.843506%, 9.367371%, 11.86676%)" offset="0.324219"/><stop stop-opacity="1" stop-color="rgb(70.492554%, 9.378052%, 11.906433%)" offset="0.328125"/><stop stop-opacity="1" stop-color="rgb(70.140076%, 9.387207%, 11.946106%)" offset="0.332031"/><stop stop-opacity="1" stop-color="rgb(69.789124%, 9.396362%, 11.985779%)" offset="0.335937"/><stop stop-opacity="1" stop-color="rgb(69.438171%, 9.405518%, 12.023926%)" offset="0.339844"/><stop stop-opacity="1" stop-color="rgb(69.087219%, 9.414673%, 12.063599%)" offset="0.34375"/><stop stop-opacity="1" stop-color="rgb(68.734741%, 9.423828%, 12.103271%)" offset="0.347656"/><stop stop-opacity="1" stop-color="rgb(68.383789%, 9.432983%, 12.142944%)" offset="0.351562"/><stop stop-opacity="1" stop-color="rgb(68.032837%, 9.442139%, 12.182617%)" offset="0.355469"/><stop stop-opacity="1" stop-color="rgb(67.681885%, 9.451294%, 12.22229%)" offset="0.359375"/><stop stop-opacity="1" stop-color="rgb(67.330933%, 9.460449%, 12.260437%)" offset="0.363281"/><stop stop-opacity="1" stop-color="rgb(66.97998%, 9.469604%, 12.30011%)" offset="0.367188"/><stop stop-opacity="1" stop-color="rgb(66.627502%, 9.47876%, 12.339783%)" offset="0.371094"/><stop stop-opacity="1" stop-color="rgb(66.27655%, 9.487915%, 12.379456%)" offset="0.375"/><stop stop-opacity="1" stop-color="rgb(65.925598%, 9.49707%, 12.417603%)" offset="0.378906"/><stop stop-opacity="1" stop-color="rgb(65.574646%, 9.507751%, 12.457275%)" offset="0.382812"/><stop stop-opacity="1" stop-color="rgb(65.222168%, 9.516907%, 12.496948%)" offset="0.386719"/><stop stop-opacity="1" stop-color="rgb(64.871216%, 9.526062%, 12.536621%)" offset="0.390625"/><stop stop-opacity="1" stop-color="rgb(64.520264%, 9.535217%, 12.576294%)" offset="0.394531"/><stop stop-opacity="1" stop-color="rgb(64.169312%, 9.544373%, 12.615967%)" offset="0.398437"/><stop stop-opacity="1" stop-color="rgb(63.818359%, 9.553528%, 12.654114%)" offset="0.402344"/><stop stop-opacity="1" stop-color="rgb(63.467407%, 9.562683%, 12.693787%)" offset="0.40625"/><stop stop-opacity="1" stop-color="rgb(63.114929%, 9.571838%, 12.733459%)" offset="0.410156"/><stop stop-opacity="1" stop-color="rgb(62.763977%, 9.580994%, 12.773132%)" offset="0.414062"/><stop stop-opacity="1" stop-color="rgb(62.413025%, 9.590149%, 12.811279%)" offset="0.417969"/><stop stop-opacity="1" stop-color="rgb(62.062073%, 9.599304%, 12.850952%)" offset="0.421875"/><stop stop-opacity="1" stop-color="rgb(61.709595%, 9.608459%, 12.890625%)" offset="0.425781"/><stop stop-opacity="1" stop-color="rgb(61.358643%, 9.617615%, 12.930298%)" offset="0.429687"/><stop stop-opacity="1" stop-color="rgb(61.00769%, 9.62677%, 12.969971%)" offset="0.433594"/><stop stop-opacity="1" stop-color="rgb(60.656738%, 9.637451%, 13.009644%)" offset="0.4375"/><stop stop-opacity="1" stop-color="rgb(60.30426%, 9.646606%, 13.047791%)" offset="0.441406"/><stop stop-opacity="1" stop-color="rgb(59.953308%, 9.655762%, 13.087463%)" offset="0.445312"/><stop stop-opacity="1" stop-color="rgb(59.602356%, 9.664917%, 13.127136%)" offset="0.449219"/><stop stop-opacity="1" stop-color="rgb(59.251404%, 9.674072%, 13.166809%)" offset="0.453125"/><stop stop-opacity="1" stop-color="rgb(58.900452%, 9.683228%, 13.204956%)" offset="0.457031"/><stop stop-opacity="1" stop-color="rgb(58.5495%, 9.692383%, 13.244629%)" offset="0.460937"/><stop stop-opacity="1" stop-color="rgb(58.197021%, 9.701538%, 13.284302%)" offset="0.464844"/><stop stop-opacity="1" stop-color="rgb(57.846069%, 9.710693%, 13.323975%)" offset="0.46875"/><stop stop-opacity="1" stop-color="rgb(57.495117%, 9.719849%, 13.363647%)" offset="0.472656"/><stop stop-opacity="1" stop-color="rgb(57.144165%, 9.729004%, 13.40332%)" offset="0.476562"/><stop stop-opacity="1" stop-color="rgb(56.791687%, 9.738159%, 13.441467%)" offset="0.480469"/><stop stop-opacity="1" stop-color="rgb(56.440735%, 9.747314%, 13.48114%)" offset="0.484375"/><stop stop-opacity="1" stop-color="rgb(56.089783%, 9.75647%, 13.520813%)" offset="0.488281"/><stop stop-opacity="1" stop-color="rgb(55.738831%, 9.767151%, 13.560486%)" offset="0.492187"/><stop stop-opacity="1" stop-color="rgb(55.386353%, 9.776306%, 13.598633%)" offset="0.496094"/><stop stop-opacity="1" stop-color="rgb(55.0354%, 9.785461%, 13.638306%)" offset="0.5"/><stop stop-opacity="1" stop-color="rgb(54.684448%, 9.794617%, 13.677979%)" offset="0.503906"/><stop stop-opacity="1" stop-color="rgb(54.333496%, 9.803772%, 13.717651%)" offset="0.507812"/><stop stop-opacity="1" stop-color="rgb(53.982544%, 9.812927%, 13.757324%)" offset="0.511719"/><stop stop-opacity="1" stop-color="rgb(53.631592%, 9.822083%, 13.796997%)" offset="0.515625"/><stop stop-opacity="1" stop-color="rgb(53.279114%, 9.831238%, 13.835144%)" offset="0.519531"/><stop stop-opacity="1" stop-color="rgb(52.928162%, 9.840393%, 13.874817%)" offset="0.523438"/><stop stop-opacity="1" stop-color="rgb(52.577209%, 9.849548%, 13.91449%)" offset="0.527344"/><stop stop-opacity="1" stop-color="rgb(52.226257%, 9.858704%, 13.954163%)" offset="0.53125"/><stop stop-opacity="1" stop-color="rgb(51.873779%, 9.867859%, 13.993835%)" offset="0.535156"/><stop stop-opacity="1" stop-color="rgb(51.522827%, 9.877014%, 14.033508%)" offset="0.539063"/><stop stop-opacity="1" stop-color="rgb(51.171875%, 9.886169%, 14.071655%)" offset="0.542969"/><stop stop-opacity="1" stop-color="rgb(50.820923%, 9.896851%, 14.111328%)" offset="0.546875"/><stop stop-opacity="1" stop-color="rgb(50.468445%, 9.906006%, 14.151001%)" offset="0.550781"/><stop stop-opacity="1" stop-color="rgb(50.117493%, 9.915161%, 14.190674%)" offset="0.554688"/><stop stop-opacity="1" stop-color="rgb(49.766541%, 9.924316%, 14.228821%)" offset="0.558594"/><stop stop-opacity="1" stop-color="rgb(49.415588%, 9.933472%, 14.268494%)" offset="0.5625"/><stop stop-opacity="1" stop-color="rgb(49.064636%, 9.942627%, 14.308167%)" offset="0.566406"/><stop stop-opacity="1" stop-color="rgb(48.713684%, 9.951782%, 14.347839%)" offset="0.570312"/><stop stop-opacity="1" stop-color="rgb(48.361206%, 9.960938%, 14.387512%)" offset="0.574219"/><stop stop-opacity="1" stop-color="rgb(48.010254%, 9.970093%, 14.427185%)" offset="0.578125"/><stop stop-opacity="1" stop-color="rgb(47.659302%, 9.979248%, 14.465332%)" offset="0.582031"/><stop stop-opacity="1" stop-color="rgb(47.30835%, 9.988403%, 14.505005%)" offset="0.585938"/><stop stop-opacity="1" stop-color="rgb(46.955872%, 9.997559%, 14.544678%)" offset="0.589844"/><stop stop-opacity="1" stop-color="rgb(46.604919%, 10.006714%, 14.584351%)" offset="0.59375"/><stop stop-opacity="1" stop-color="rgb(46.253967%, 10.015869%, 14.622498%)" offset="0.597656"/><stop stop-opacity="1" stop-color="rgb(45.903015%, 10.02655%, 14.66217%)" offset="0.601562"/><stop stop-opacity="1" stop-color="rgb(45.552063%, 10.035706%, 14.701843%)" offset="0.605469"/><stop stop-opacity="1" stop-color="rgb(45.201111%, 10.044861%, 14.741516%)" offset="0.609375"/><stop stop-opacity="1" stop-color="rgb(44.848633%, 10.054016%, 14.781189%)" offset="0.613281"/><stop stop-opacity="1" stop-color="rgb(44.497681%, 10.063171%, 14.820862%)" offset="0.617188"/><stop stop-opacity="1" stop-color="rgb(44.146729%, 10.072327%, 14.859009%)" offset="0.621094"/><stop stop-opacity="1" stop-color="rgb(43.795776%, 10.081482%, 14.898682%)" offset="0.625"/><stop stop-opacity="1" stop-color="rgb(43.443298%, 10.090637%, 14.938354%)" offset="0.628906"/><stop stop-opacity="1" stop-color="rgb(43.092346%, 10.099792%, 14.978027%)" offset="0.632813"/><stop stop-opacity="1" stop-color="rgb(42.741394%, 10.108948%, 15.016174%)" offset="0.636719"/><stop stop-opacity="1" stop-color="rgb(42.390442%, 10.118103%, 15.055847%)" offset="0.640625"/><stop stop-opacity="1" stop-color="rgb(42.037964%, 10.127258%, 15.09552%)" offset="0.644531"/><stop stop-opacity="1" stop-color="rgb(41.687012%, 10.136414%, 15.135193%)" offset="0.648438"/><stop stop-opacity="1" stop-color="rgb(41.33606%, 10.145569%, 15.174866%)" offset="0.652344"/><stop stop-opacity="1" stop-color="rgb(40.985107%, 10.15625%, 15.214539%)" offset="0.65625"/><stop stop-opacity="1" stop-color="rgb(40.634155%, 10.165405%, 15.252686%)" offset="0.660156"/><stop stop-opacity="1" stop-color="rgb(40.283203%, 10.174561%, 15.292358%)" offset="0.664062"/><stop stop-opacity="1" stop-color="rgb(39.930725%, 10.183716%, 15.332031%)" offset="0.667969"/><stop stop-opacity="1" stop-color="rgb(39.579773%, 10.192871%, 15.371704%)" offset="0.671875"/><stop stop-opacity="1" stop-color="rgb(39.228821%, 10.202026%, 15.409851%)" offset="0.675781"/><stop stop-opacity="1" stop-color="rgb(38.877869%, 10.211182%, 15.449524%)" offset="0.679688"/><stop stop-opacity="1" stop-color="rgb(38.525391%, 10.220337%, 15.489197%)" offset="0.683594"/><stop stop-opacity="1" stop-color="rgb(38.174438%, 10.229492%, 15.52887%)" offset="0.6875"/><stop stop-opacity="1" stop-color="rgb(37.823486%, 10.238647%, 15.568542%)" offset="0.691406"/><stop stop-opacity="1" stop-color="rgb(37.472534%, 10.247803%, 15.608215%)" offset="0.695312"/><stop stop-opacity="1" stop-color="rgb(37.120056%, 10.256958%, 15.646362%)" offset="0.699219"/><stop stop-opacity="1" stop-color="rgb(36.769104%, 10.266113%, 15.686035%)" offset="0.703125"/><stop stop-opacity="1" stop-color="rgb(36.418152%, 10.275269%, 15.725708%)" offset="0.707031"/><stop stop-opacity="1" stop-color="rgb(36.0672%, 10.28595%, 15.765381%)" offset="0.710938"/><stop stop-opacity="1" stop-color="rgb(35.716248%, 10.295105%, 15.805054%)" offset="0.714844"/><stop stop-opacity="1" stop-color="rgb(35.365295%, 10.30426%, 15.844727%)" offset="0.71875"/><stop stop-opacity="1" stop-color="rgb(35.012817%, 10.313416%, 15.882874%)" offset="0.722656"/><stop stop-opacity="1" stop-color="rgb(34.661865%, 10.322571%, 15.922546%)" offset="0.726563"/><stop stop-opacity="1" stop-color="rgb(34.310913%, 10.331726%, 15.962219%)" offset="0.730469"/><stop stop-opacity="1" stop-color="rgb(33.959961%, 10.340881%, 16.001892%)" offset="0.734375"/><stop stop-opacity="1" stop-color="rgb(33.607483%, 10.350037%, 16.040039%)" offset="0.738281"/><stop stop-opacity="1" stop-color="rgb(33.256531%, 10.359192%, 16.079712%)" offset="0.742188"/><stop stop-opacity="1" stop-color="rgb(32.905579%, 10.368347%, 16.119385%)" offset="0.746094"/><stop stop-opacity="1" stop-color="rgb(32.554626%, 10.377502%, 16.159058%)" offset="0.75"/><stop stop-opacity="1" stop-color="rgb(32.202148%, 10.386658%, 16.19873%)" offset="0.753906"/><stop stop-opacity="1" stop-color="rgb(31.851196%, 10.395813%, 16.238403%)" offset="0.757812"/><stop stop-opacity="1" stop-color="rgb(31.500244%, 10.404968%, 16.27655%)" offset="0.761719"/><stop stop-opacity="1" stop-color="rgb(31.149292%, 10.415649%, 16.316223%)" offset="0.765625"/><stop stop-opacity="1" stop-color="rgb(30.79834%, 10.424805%, 16.355896%)" offset="0.769531"/><stop stop-opacity="1" stop-color="rgb(30.447388%, 10.43396%, 16.395569%)" offset="0.773437"/><stop stop-opacity="1" stop-color="rgb(30.09491%, 10.443115%, 16.433716%)" offset="0.777344"/><stop stop-opacity="1" stop-color="rgb(29.743958%, 10.452271%, 16.473389%)" offset="0.78125"/><stop stop-opacity="1" stop-color="rgb(29.393005%, 10.461426%, 16.513062%)" offset="0.785156"/><stop stop-opacity="1" stop-color="rgb(29.042053%, 10.470581%, 16.552734%)" offset="0.789062"/><stop stop-opacity="1" stop-color="rgb(28.689575%, 10.479736%, 16.592407%)" offset="0.792969"/><stop stop-opacity="1" stop-color="rgb(28.338623%, 10.488892%, 16.63208%)" offset="0.796875"/><stop stop-opacity="1" stop-color="rgb(27.987671%, 10.498047%, 16.670227%)" offset="0.800781"/><stop stop-opacity="1" stop-color="rgb(27.636719%, 10.507202%, 16.7099%)" offset="0.804688"/><stop stop-opacity="1" stop-color="rgb(27.285767%, 10.516357%, 16.749573%)" offset="0.808594"/><stop stop-opacity="1" stop-color="rgb(26.934814%, 10.525513%, 16.789246%)" offset="0.8125"/><stop stop-opacity="1" stop-color="rgb(26.582336%, 10.534668%, 16.827393%)" offset="0.816406"/><stop stop-opacity="1" stop-color="rgb(26.231384%, 10.545349%, 16.867065%)" offset="0.820312"/><stop stop-opacity="1" stop-color="rgb(25.880432%, 10.554504%, 16.906738%)" offset="0.824219"/><stop stop-opacity="1" stop-color="rgb(25.52948%, 10.56366%, 16.946411%)" offset="0.828125"/><stop stop-opacity="1" stop-color="rgb(25.177002%, 10.572815%, 16.986084%)" offset="0.832031"/><stop stop-opacity="1" stop-color="rgb(24.82605%, 10.58197%, 17.025757%)" offset="0.835938"/><stop stop-opacity="1" stop-color="rgb(24.475098%, 10.591125%, 17.063904%)" offset="0.839844"/><stop stop-opacity="1" stop-color="rgb(24.124146%, 10.600281%, 17.103577%)" offset="0.84375"/><stop stop-opacity="1" stop-color="rgb(23.771667%, 10.609436%, 17.14325%)" offset="0.847656"/><stop stop-opacity="1" stop-color="rgb(23.420715%, 10.618591%, 17.182922%)" offset="0.851562"/><stop stop-opacity="1" stop-color="rgb(23.069763%, 10.627747%, 17.221069%)" offset="0.855469"/><stop stop-opacity="1" stop-color="rgb(22.718811%, 10.636902%, 17.260742%)" offset="0.859375"/><stop stop-opacity="1" stop-color="rgb(22.367859%, 10.646057%, 17.300415%)" offset="0.863281"/><stop stop-opacity="1" stop-color="rgb(22.016907%, 10.655212%, 17.340088%)" offset="0.867187"/><stop stop-opacity="1" stop-color="rgb(21.664429%, 10.664368%, 17.379761%)" offset="0.871094"/><stop stop-opacity="1" stop-color="rgb(21.313477%, 10.675049%, 17.419434%)" offset="0.875"/><stop stop-opacity="1" stop-color="rgb(20.962524%, 10.684204%, 17.457581%)" offset="0.878906"/><stop stop-opacity="1" stop-color="rgb(20.611572%, 10.693359%, 17.497253%)" offset="0.882812"/><stop stop-opacity="1" stop-color="rgb(20.259094%, 10.702515%, 17.536926%)" offset="0.886719"/><stop stop-opacity="1" stop-color="rgb(19.908142%, 10.71167%, 17.576599%)" offset="0.890625"/><stop stop-opacity="1" stop-color="rgb(19.55719%, 10.720825%, 17.614746%)" offset="0.894531"/><stop stop-opacity="1" stop-color="rgb(19.206238%, 10.72998%, 17.654419%)" offset="0.898438"/><stop stop-opacity="1" stop-color="rgb(18.85376%, 10.739136%, 17.694092%)" offset="0.902344"/><stop stop-opacity="1" stop-color="rgb(18.502808%, 10.748291%, 17.733765%)" offset="0.90625"/><stop stop-opacity="1" stop-color="rgb(18.151855%, 10.757446%, 17.773438%)" offset="0.910156"/><stop stop-opacity="1" stop-color="rgb(17.800903%, 10.766602%, 17.81311%)" offset="0.914062"/><stop stop-opacity="1" stop-color="rgb(17.449951%, 10.775757%, 17.851257%)" offset="0.917969"/><stop stop-opacity="1" stop-color="rgb(17.098999%, 10.784912%, 17.89093%)" offset="0.921875"/><stop stop-opacity="1" stop-color="rgb(16.746521%, 10.794067%, 17.930603%)" offset="0.925781"/><stop stop-opacity="1" stop-color="rgb(16.395569%, 10.804749%, 17.970276%)" offset="0.929688"/><stop stop-opacity="1" stop-color="rgb(16.044617%, 10.813904%, 18.009949%)" offset="0.933594"/><stop stop-opacity="1" stop-color="rgb(15.693665%, 10.823059%, 18.049622%)" offset="0.9375"/><stop stop-opacity="1" stop-color="rgb(15.341187%, 10.832214%, 18.087769%)" offset="0.941406"/><stop stop-opacity="1" stop-color="rgb(14.990234%, 10.84137%, 18.127441%)" offset="0.945312"/><stop stop-opacity="1" stop-color="rgb(14.639282%, 10.850525%, 18.167114%)" offset="0.949219"/><stop stop-opacity="1" stop-color="rgb(14.28833%, 10.85968%, 18.206787%)" offset="0.953125"/><stop stop-opacity="1" stop-color="rgb(13.937378%, 10.868835%, 18.244934%)" offset="0.957031"/><stop stop-opacity="1" stop-color="rgb(13.586426%, 10.877991%, 18.284607%)" offset="0.960937"/><stop stop-opacity="1" stop-color="rgb(13.233948%, 10.887146%, 18.32428%)" offset="0.964844"/><stop stop-opacity="1" stop-color="rgb(12.882996%, 10.896301%, 18.363953%)" offset="0.96875"/><stop stop-opacity="1" stop-color="rgb(12.532043%, 10.905457%, 18.403625%)" offset="0.972656"/><stop stop-opacity="1" stop-color="rgb(12.181091%, 10.914612%, 18.443298%)" offset="0.976562"/><stop stop-opacity="1" stop-color="rgb(11.828613%, 10.923767%, 18.481445%)" offset="0.980469"/><stop stop-opacity="1" stop-color="rgb(11.477661%, 10.934448%, 18.521118%)" offset="0.984375"/><stop stop-opacity="1" stop-color="rgb(11.126709%, 10.943604%, 18.560791%)" offset="0.988281"/><stop stop-opacity="1" stop-color="rgb(10.775757%, 10.952759%, 18.600464%)" offset="0.992188"/><stop stop-opacity="1" stop-color="rgb(10.423279%, 10.961914%, 18.638611%)" offset="0.996094"/><stop stop-opacity="1" stop-color="rgb(10.072327%, 10.971069%, 18.678284%)" offset="1"/></linearGradient><clipPath id="4e4a571a48"><path d="M 80.996094 81 L 729 81 L 729 729 L 80.996094 729 Z M 80.996094 81 " clip-rule="nonzero"/></clipPath><clipPath id="39afef8edc"><path d="M 729 405.003906 C 729 583.9375 583.9375 729 405 729 C 226.058594 729 80.996094 583.9375 80.996094 405.003906 C 80.996094 226.0625 226.058594 81 405 81 C 583.9375 81 729 226.0625 729 405.003906 Z M 729 405.003906 " clip-rule="nonzero"/></clipPath></defs><g clip-path="url(#990e4429b4)"><g clip-path="url(#96ee40360e)"><path fill="url(#60970782b8)" d="M 81 729 L 729 729 L 729 81 L 81 81 Z M 81 729 " fill-rule="nonzero"/></g></g><g clip-path="url(#4e4a571a48)"><g clip-path="url(#39afef8edc)"><path fill="#ffde59" d="M 80.996094 81 L 729 81 L 729 729.003906 L 80.996094 729.003906 Z M 80.996094 81 " fill-opacity="1" fill-rule="nonzero"/></g></g><path fill="#ffffff" d="M 250.386719 589.742188 C 250.386719 589.742188 248.070312 589.742188 245.269531 574.382812 C 241.796875 555.164062 249.613281 519.625 250.773438 516.824219 C 242.761719 510.738281 211.492188 481.570312 213.039062 441.203125 C 214.582031 400.832031 244.789062 360.074219 244.789062 360.074219 C 244.789062 360.074219 249.324219 274.410156 294.683594 225.832031 C 311.183594 227.472656 357.796875 267.648438 366.289062 275.183594 C 387.714844 268.617188 448.898438 269.484375 471.578125 274.988281 C 471.578125 274.988281 502.558594 239.449219 545.40625 227.859375 C 552.644531 230.464844 601.378906 312.171875 592.308594 360.945312 C 606.878906 374.273438 656.773438 449.992188 588.253906 520.492188 C 601.378906 557.289062 593.078125 589.835938 593.078125 589.835938 Z M 250.386719 589.742188 C 250.386719 589.742188 245.269531 587.132812 243.921875 577.859375 C 240.929688 557.484375 249.421875 520.398438 250.773438 516.917969 C 242.761719 510.835938 211.492188 481.667969 213.039062 441.296875 C 214.582031 400.929688 244.789062 360.171875 244.789062 360.171875 C 244.789062 360.171875 247.394531 276.4375 292.753906 227.859375 C 309.253906 229.5 357.796875 267.746094 366.289062 275.28125 C 387.714844 268.710938 448.898438 269.582031 471.578125 275.085938 C 471.578125 275.085938 499.953125 239.546875 542.703125 227.957031 C 549.941406 230.5625 601.28125 312.269531 592.210938 361.042969 C 606.785156 374.371094 656.675781 450.085938 588.15625 520.589844 C 601.28125 557.386719 592.113281 589.933594 592.113281 589.933594 L 250.386719 589.933594 Z M 250.386719 589.742188 " fill-opacity="1" fill-rule="nonzero"/><path fill="#efb07d" d="M 395.050781 271.996094 C 395.050781 271.996094 451.699219 335.0625 378.160156 393.203125 C 304.621094 451.34375 211.398438 421.984375 224.039062 396.96875 C 224.039062 396.96875 236.296875 365.871094 247.78125 358.628906 C 240.734375 339.988281 257.335938 287.929688 272.484375 257.121094 C 272.484375 257.121094 287.734375 227.957031 294.683594 225.925781 C 301.628906 223.898438 346.507812 255.191406 364.648438 271.800781 C 376.230469 273.25 395.050781 271.996094 395.050781 271.996094 Z M 561.523438 589.742188 C 561.523438 589.742188 588.738281 582.402344 602.34375 557.191406 C 586.226562 517.402344 568.761719 462.933594 553.898438 452.695312 C 539.035156 442.457031 534.984375 451.148438 528.902344 460.324219 C 523.304688 449.992188 506.898438 442.070312 501.785156 460.324219 C 495.414062 451.730469 476.210938 450.472656 476.984375 481.476562 C 477.851562 512.476562 494.644531 589.742188 494.644531 589.742188 Z M 561.523438 589.742188 " fill-opacity="1" fill-rule="nonzero"/><path fill="#ef5454" d="M 291.59375 308.210938 C 291.59375 308.210938 277.695312 329.558594 266.40625 348.871094 C 266.117188 282.523438 298.929688 253.644531 298.929688 253.644531 C 290.53125 271.609375 291.59375 308.210938 291.59375 308.210938 Z M 546.082031 308.210938 C 546.082031 308.210938 558.628906 329.558594 570.015625 348.871094 C 570.304688 282.523438 537.492188 253.644531 537.492188 253.644531 C 545.886719 271.609375 546.082031 308.210938 546.082031 308.210938 Z M 266.40625 480.703125 C 212.363281 438.691406 233.496094 380.066406 233.496094 380.066406 C 203.773438 412.035156 206.570312 479.542969 241.21875 513.441406 C 243.726562 515.859375 246.429688 518.175781 249.421875 520.300781 C 254.535156 507.9375 261.582031 491.808594 266.40625 480.703125 Z M 353.746094 532.566406 L 350.753906 551.589844 C 369.476562 553.234375 385.878906 552.847656 396.015625 550.625 C 386.847656 546.472656 371.886719 540.871094 353.746094 532.566406 Z M 485.957031 530.730469 C 465.980469 540.003906 449.476562 546.183594 439.636719 550.625 C 450.25 552.945312 467.71875 553.332031 487.40625 551.398438 Z M 602.246094 380.066406 C 602.246094 380.066406 623.09375 437.917969 570.304688 479.832031 C 574.742188 490.652344 582.175781 508.421875 587.386719 519.429688 C 589.894531 517.5 592.308594 515.472656 594.429688 513.441406 C 629.171875 479.542969 631.972656 412.035156 602.246094 380.066406 Z M 541.835938 452.792969 C 541.835938 452.792969 557.953125 470.949219 562.96875 520.398438 C 567.988281 569.84375 550.90625 589.742188 550.90625 589.742188 L 602.246094 589.742188 C 602.246094 589.742188 608.328125 579.40625 603.214844 563.761719 C 598.195312 548.113281 566.539062 462.0625 550.808594 452.695312 C 535.175781 443.328125 541.835938 452.792969 541.835938 452.792969 Z M 284.355469 452.597656 C 268.625 461.964844 236.972656 548.113281 231.953125 563.664062 C 226.933594 579.308594 232.917969 589.644531 232.917969 589.644531 L 284.257812 589.644531 C 284.257812 589.644531 267.082031 569.652344 272.195312 520.300781 C 277.214844 470.851562 293.332031 452.695312 293.332031 452.695312 C 293.332031 452.695312 300.085938 443.328125 284.355469 452.597656 Z M 438.089844 484.855469 C 438.089844 484.855469 424.484375 492.003906 404.890625 484.855469 C 414.351562 503.398438 432.492188 499.632812 438.089844 484.855469 Z M 494.355469 281.363281 C 494.355469 281.363281 521.859375 243.890625 544.539062 231.144531 C 545.40625 227.859375 533.246094 225.15625 513.65625 240.316406 C 494.0625 255.480469 471.578125 275.085938 471.578125 275.085938 Z M 366.484375 275.085938 C 366.484375 275.085938 343.996094 255.480469 324.40625 240.316406 C 304.816406 225.15625 292.65625 227.859375 293.523438 231.144531 C 316.203125 243.890625 343.707031 281.363281 343.707031 281.363281 Z M 366.484375 275.085938 " fill-opacity="0.298" fill-rule="nonzero"/><path fill="#ffffff" d="M 292.65625 227.859375 C 292.65625 227.859375 257.914062 292.375 260.324219 363.746094 C 239.671875 380.164062 228.863281 396.96875 217.863281 425.167969 C 217.476562 408.074219 227.707031 388.566406 244.691406 360.171875 C 247.296875 323.859375 268.914062 249.878906 292.65625 227.859375 Z M 245.5625 516.4375 C 245.5625 516.4375 249.132812 516.824219 251.929688 503.976562 C 216.996094 468.921875 217.285156 426.910156 217.285156 426.910156 C 199.042969 467.085938 245.5625 516.4375 245.5625 516.4375 Z M 238.324219 589.742188 C 240.734375 589.742188 246.140625 589.742188 250.386719 589.742188 C 236.007812 571.777344 251.929688 527.542969 251.929688 527.542969 C 224.425781 563.761719 231.761719 589.742188 238.324219 589.742188 Z M 586.421875 527.542969 C 586.421875 527.542969 602.246094 571.777344 587.964844 589.742188 C 592.886719 589.742188 596.84375 589.742188 599.351562 589.742188 C 604.179688 588.195312 604.949219 588.003906 604.949219 588.003906 C 604.949219 588.003906 613.925781 563.761719 586.421875 527.542969 Z M 620.003906 427.003906 C 620.003906 427.003906 620.292969 469.015625 585.359375 504.074219 C 588.15625 516.917969 592.402344 520.6875 592.402344 520.6875 C 592.402344 520.6875 638.246094 467.085938 620.003906 427.003906 Z M 620.003906 427.003906 " fill-opacity="1" fill-rule="nonzero"/><path fill="#2b0806" d="M 516.550781 338.636719 C 503.234375 339.3125 460.480469 355.054688 460.671875 359.980469 C 461.058594 369.058594 492.132812 380.9375 514.136719 390.015625 C 536.140625 399.09375 531.605469 386.828125 520.121094 379.488281 C 524.269531 381.902344 532.472656 380.355469 526.199219 374.5625 C 521.859375 370.601562 495.320312 359.882812 495.320312 359.882812 C 495.320312 359.882812 509.601562 356.40625 519.734375 353.605469 C 529.289062 350.996094 527.648438 346.84375 518.480469 347.328125 C 522.917969 345.976562 528.132812 338.054688 516.550781 338.636719 Z M 452.277344 379.972656 C 449.382812 385.957031 443.011719 391.078125 436.738281 388.664062 C 430.464844 386.25 426.027344 376.109375 418.886719 376.109375 C 411.746094 376.109375 407.402344 386.25 401.03125 388.664062 C 394.757812 391.078125 388.390625 385.957031 385.496094 379.972656 C 376.710938 384.703125 362.140625 397.355469 363.105469 422.660156 C 364.070312 447.960938 381.828125 467.859375 418.886719 467.859375 C 455.847656 467.859375 473.703125 447.867188 474.667969 422.660156 C 475.535156 397.355469 460.960938 384.703125 452.277344 379.972656 Z M 323.632812 390.015625 C 345.636719 380.9375 376.710938 369.058594 377.097656 359.980469 C 377.292969 355.054688 334.441406 339.3125 321.222656 338.636719 C 309.640625 338.054688 314.851562 345.976562 319.386719 347.421875 C 310.21875 346.84375 308.578125 351.09375 318.132812 353.703125 C 328.265625 356.503906 342.550781 359.980469 342.550781 359.980469 C 342.550781 359.980469 316.011719 370.699219 311.667969 374.660156 C 305.394531 380.453125 313.597656 382 317.746094 379.585938 C 306.167969 386.828125 301.628906 399.09375 323.632812 390.015625 Z M 537.589844 253.550781 C 537.589844 253.550781 545.886719 288.316406 541.351562 316.90625 C 548.109375 319.800781 570.015625 348.871094 570.015625 348.871094 C 570.015625 348.871094 566.25 329.363281 550.714844 312.753906 C 554.1875 293.824219 548.109375 263.398438 537.589844 253.550781 Z M 592.402344 520.589844 C 657.738281 456.847656 617.109375 387.019531 596.941406 360.75 C 594.71875 275.183594 553.125 220.324219 542.605469 221.582031 C 506.996094 231.144531 472.640625 266.105469 467.71875 271.320312 C 447.164062 265.910156 428.246094 265.332031 418.886719 265.523438 C 409.523438 265.429688 390.609375 265.910156 370.054688 271.320312 C 365.035156 266.105469 330.777344 231.144531 295.164062 221.582031 C 284.550781 220.324219 243.050781 275.183594 240.832031 360.75 C 220.757812 386.925781 180.128906 456.75 245.367188 520.589844 L 245.269531 520.878906 C 240.542969 532.277344 235.8125 544.058594 231.472656 555.359375 C 229.925781 559.511719 223.941406 576.703125 225.679688 589.742188 C 228.769531 589.742188 238.03125 589.742188 238.417969 589.742188 C 234.171875 585.203125 238.324219 566.367188 240.347656 560.378906 C 247.585938 538.84375 258.011719 510.738281 265.441406 493.835938 C 278.566406 463.800781 289.179688 450.859375 299.316406 452.886719 C 305.78125 454.144531 309.738281 467.085938 309.738281 467.085938 C 309.738281 467.085938 317.359375 452.792969 326.238281 454.238281 C 333.382812 455.398438 332.996094 463.125 332.609375 470.367188 C 338.304688 457.332031 353.453125 453.855469 356.351562 471.238281 C 358.28125 483.019531 339.945312 574.289062 338.304688 589.742188 C 338.304688 589.742188 345.058594 589.742188 349.207031 589.742188 C 350.171875 579.890625 358.085938 528.027344 360.886719 507.457031 C 363.878906 485.242188 365.902344 474.328125 362.332031 464.476562 C 355.09375 444.582031 340.039062 450.472656 337.046875 456.558594 C 338.785156 442.359375 319.773438 440.042969 311.378906 454.433594 C 307.035156 437.726562 287.925781 435.988281 271.808594 464.089844 C 265.632812 474.90625 257.527344 492.292969 249.226562 511.800781 C 234.460938 497.699219 184.761719 441.394531 249.324219 362.007812 C 249.324219 341.820312 258.976562 276.535156 293.429688 231.144531 C 299.21875 228.246094 329.8125 245.53125 360.980469 274.21875 C 355.191406 276.148438 349.304688 278.464844 343.609375 281.363281 C 345.734375 283.875 374.78125 274.507812 418.984375 274.507812 C 463.183594 274.507812 492.230469 283.875 494.355469 281.363281 C 488.660156 278.464844 482.773438 276.148438 476.984375 274.21875 C 508.152344 245.53125 538.84375 228.246094 544.539062 231.144531 C 578.988281 276.535156 588.640625 341.917969 588.640625 362.007812 C 653.203125 441.394531 603.503906 497.699219 588.738281 511.800781 C 580.4375 492.390625 572.332031 474.90625 566.15625 464.089844 C 550.039062 436.082031 530.929688 437.820312 526.585938 454.433594 C 518.191406 440.042969 499.179688 442.359375 500.917969 456.558594 C 497.828125 450.570312 482.871094 444.582031 475.632812 464.476562 C 472.0625 474.328125 473.992188 485.242188 477.078125 507.457031 C 479.878906 528.027344 487.792969 579.890625 488.757812 589.742188 C 492.808594 589.742188 499.660156 589.742188 499.660156 589.742188 C 498.117188 574.289062 479.683594 483.117188 481.613281 471.238281 C 484.511719 453.757812 499.566406 457.234375 505.355469 470.367188 C 504.875 463.125 504.488281 455.398438 511.726562 454.238281 C 520.605469 452.792969 528.226562 467.085938 528.226562 467.085938 C 528.226562 467.085938 532.183594 454.144531 538.648438 452.886719 C 548.785156 450.859375 559.300781 463.800781 572.523438 493.835938 C 579.953125 510.738281 590.378906 538.84375 597.617188 560.378906 C 599.640625 566.367188 603.792969 585.203125 599.546875 589.742188 C 599.933594 589.742188 609.195312 589.742188 612.285156 589.742188 C 614.023438 576.703125 608.039062 559.511719 606.496094 555.359375 C 601.957031 543.960938 597.132812 532.082031 592.402344 520.589844 Z M 228.960938 322.507812 C 216.222656 311.496094 203.582031 300.488281 190.9375 289.476562 C 187.945312 286.867188 179.550781 291.3125 183.605469 294.789062 C 196.246094 305.796875 208.886719 316.808594 221.53125 327.816406 C 224.617188 330.425781 232.917969 325.984375 228.960938 322.507812 Z M 215.835938 338.636719 C 198.367188 333.035156 180.902344 327.527344 163.433594 321.925781 C 159.378906 320.671875 152.238281 326.464844 157.933594 328.300781 C 175.402344 333.902344 192.867188 339.40625 210.335938 345.007812 C 214.390625 346.265625 221.53125 340.375 215.835938 338.636719 Z M 211.6875 358.820312 C 199.914062 361.910156 188.234375 365.097656 176.460938 368.1875 C 170.671875 369.734375 172.121094 375.238281 177.910156 373.691406 C 189.683594 370.601562 201.359375 367.414062 213.132812 364.324219 C 218.925781 362.78125 217.476562 357.273438 211.6875 358.820312 Z M 285.609375 312.753906 C 270.167969 329.363281 266.308594 348.871094 266.308594 348.871094 C 266.308594 348.871094 288.214844 319.800781 294.972656 316.90625 C 290.4375 288.316406 298.734375 253.550781 298.734375 253.550781 C 288.3125 263.398438 282.234375 293.824219 285.609375 312.753906 Z M 285.609375 312.753906 " fill-opacity="1" fill-rule="nonzero"/><path fill="#ef5454" d="M 466.558594 411.457031 C 466.945312 414.160156 467.140625 417.058594 466.945312 420.246094 C 466.078125 442.652344 450.347656 460.324219 417.535156 460.324219 C 403.542969 460.324219 392.734375 457.136719 384.820312 451.730469 C 410.199219 410.488281 454.785156 410.585938 466.558594 411.457031 Z M 466.558594 411.457031 C 466.945312 414.160156 467.140625 417.058594 466.945312 420.246094 C 466.078125 442.652344 450.347656 460.324219 417.535156 460.324219 C 403.542969 460.324219 392.734375 457.136719 384.820312 451.730469 C 410.199219 410.488281 454.785156 410.585938 466.558594 411.457031 Z M 466.558594 411.457031 " fill-opacity="1" fill-rule="nonzero"/><!-- Code injected by live-server -->
<script>
	// <![CDATA[  <-- For SVG support
	if ('WebSocket' in window) {
		(function () {
			function refreshCSS() {
				var sheets = [].slice.call(document.getElementsByTagName("link"));
				var head = document.getElementsByTagName("head")[0];
				for (var i = 0; i < sheets.length; ++i) {
					var elem = sheets[i];
					var parent = elem.parentElement || head;
					parent.removeChild(elem);
					var rel = elem.rel;
					if (elem.href && typeof rel != "string" || rel.length == 0 || rel.toLowerCase() == "stylesheet") {
						var url = elem.href.replace(/(&|\?)_cacheOverride=\d+/, '');
						elem.href = url + (url.indexOf('?') >= 0 ? '&' : '?') + '_cacheOverride=' + (new Date().valueOf());
					}
					parent.appendChild(elem);
				}
			}
			var protocol = window.location.protocol === 'http:' ? 'ws://' : 'wss://';
			var address = protocol + window.location.host + window.location.pathname + '/ws';
			var socket = new WebSocket(address);
			socket.onmessage = function (msg) {
				if (msg.data == 'reload') window.location.reload();
				else if (msg.data == 'refreshcss') refreshCSS();
			};
			if (sessionStorage && !sessionStorage.getItem('IsThisFirstTime_Log_From_LiveServer')) {
				console.log('Live reload enabled.');
				sessionStorage.setItem('IsThisFirstTime_Log_From_LiveServer', true);
			}
		})();
	}
	else {
		console.error('Upgrade your browser. This Browser is NOT supported WebSocket for Live-Reloading.');
	}
	// ]]>
</script>
</svg>