<svg xmlns="http://www.w3.org/2000/svg" xmlns:xlink="http://www.w3.org/1999/xlink" width="1080" zoomAndPan="magnify" viewBox="0 0 810 809.999993" height="1080" preserveAspectRatio="xMidYMid meet" version="1.0"><defs><clipPath id="c18b0f9a2a"><path d="M 80.996094 81 L 729 81 L 729 729 L 80.996094 729 Z M 80.996094 81 " clip-rule="nonzero"/></clipPath><clipPath id="325855524d"><path d="M 729 405.003906 C 729 583.9375 583.9375 729 405 729 C 226.058594 729 80.996094 583.9375 80.996094 405.003906 C 80.996094 226.0625 226.058594 81 405 81 C 583.9375 81 729 226.0625 729 405.003906 Z M 729 405.003906 " clip-rule="nonzero"/></clipPath></defs><rect x="-81" width="972" fill="#ffffff" y="-80.999999" height="971.999992" fill-opacity="1"/><rect x="-81" width="972" fill="#ffffff" y="-80.999999" height="971.999992" fill-opacity="1"/><rect x="-81" width="972" fill="#ffffff" y="-80.999999" height="971.999992" fill-opacity="1"/><g clip-path="url(#c18b0f9a2a)"><g clip-path="url(#325855524d)"><path fill="#87ceeb" d="M 80.996094 81 L 729 81 L 729 729.003906 L 80.996094 729.003906 Z M 80.996094 81 " fill-opacity="1" fill-rule="nonzero"/></g></g><path fill="#FCA311" d="M 568.398438 494.261719 C 556.152344 500.691406 542.273438 498.851562 529.105469 493.34375 C 534.3125 513.035156 538.699219 532.933594 542.273438 552.933594 C 544.621094 565.894531 546.660156 579.054688 547.578125 592.21875 C 548.292969 601.914062 549.414062 613.546875 545.945312 622.933594 C 539.109375 641.300781 512.472656 648.75 495.53125 652.625 C 475.324219 657.21875 448.792969 660.6875 429.503906 650.789062 C 419.300781 645.585938 415.726562 634.359375 411.847656 624.15625 C 410.113281 619.464844 408.378906 614.464844 407.15625 609.363281 C 405.523438 616.199219 402.96875 622.933594 400.417969 629.054688 C 395.519531 640.789062 391.4375 648.953125 378.988281 653.035156 C 357.148438 660.277344 330.617188 656.300781 309.082031 649.972656 C 292.242188 645.074219 269.894531 636.300781 266.933594 616.707031 C 263.261719 592.523438 269.382812 565.894531 274.078125 542.21875 C 277.34375 525.585938 281.019531 509.058594 285.40625 492.730469 C 271.015625 498.851562 254.789062 501.097656 241.421875 491.40625 C 232.238281 484.875 226.625 474.976562 226.316406 463.648438 C 226.011719 448.242188 234.277344 433.546875 243.15625 421.609375 C 258.261719 401.203125 278.160156 384.570312 298.46875 369.570312 C 299.285156 368.957031 300.101562 369.367188 300.511719 369.976562 L 306.429688 365.386719 C 294.796875 359.980469 284.285156 352.9375 276.222656 342.734375 C 257.953125 319.367188 259.179688 286.917969 266.324219 259.675781 C 268.363281 251.613281 271.222656 243.859375 274.996094 236.410156 C 276.425781 233.65625 276.425781 233.550781 275.710938 230.796875 C 274.894531 227.328125 273.464844 224.0625 272.648438 220.59375 C 269.382812 207.738281 267.957031 193.554688 272.648438 180.796875 C 282.550781 153.65625 319.59375 140.1875 345.414062 150.695312 C 366.128906 158.960938 379.90625 178.347656 387.253906 198.757812 C 397.253906 196.820312 409.503906 194.777344 419.09375 198.449219 C 427.667969 174.980469 445.21875 152.433594 471.039062 147.636719 C 498.59375 142.535156 531.964844 161.613281 536.046875 190.390625 C 538.089844 204.675781 533.902344 217.125 530.636719 230.695312 C 529.820312 234.164062 530.535156 234.574219 532.269531 238.144531 C 533.496094 240.796875 534.71875 243.550781 535.742188 246.308594 C 539.007812 254.675781 541.25 263.449219 542.679688 272.226562 C 547.273438 299.164062 545.027344 328.449219 524.71875 348.753906 C 519.414062 354.058594 513.390625 358.242188 507.0625 361.816406 L 511.453125 366.40625 C 511.859375 365.898438 512.574219 365.589844 513.289062 366.203125 C 535.84375 382.9375 558.191406 401.816406 573.703125 425.488281 C 587.992188 447.019531 596.257812 479.566406 568.398438 494.261719 Z M 568.398438 494.261719 " fill-opacity="1" fill-rule="nonzero"/><path fill="#ebd29c" d="M 463.488281 475.691406 C 463.488281 492.425781 459.40625 507.832031 452.464844 520.484375 L 446.957031 529.058594 C 436.238281 543.648438 421.035156 552.628906 404.296875 552.628906 C 371.640625 552.628906 345.105469 518.140625 345.105469 475.691406 C 345.105469 433.242188 371.640625 398.753906 404.296875 398.753906 C 436.953125 398.753906 463.488281 433.242188 463.488281 475.691406 Z M 463.488281 475.691406 " fill-opacity="1" fill-rule="nonzero"/><path fill="#000000" d="M 568.398438 494.261719 C 556.152344 500.691406 542.273438 498.851562 529.105469 493.34375 C 534.3125 512.933594 538.597656 532.933594 542.273438 552.832031 C 544.621094 565.789062 546.660156 578.851562 547.578125 592.117188 C 548.292969 601.8125 549.414062 613.441406 545.945312 622.832031 C 539.109375 641.199219 512.472656 648.644531 495.53125 652.523438 C 475.324219 657.117188 448.792969 660.585938 429.503906 650.6875 C 419.300781 645.484375 415.726562 634.257812 411.847656 624.054688 C 410.113281 619.359375 408.378906 614.363281 407.15625 609.257812 C 405.523438 616.097656 402.96875 622.832031 400.417969 628.953125 C 395.519531 640.6875 391.4375 648.851562 378.988281 652.933594 C 357.148438 660.175781 330.617188 656.199219 309.082031 649.871094 C 292.242188 644.871094 269.894531 636.199219 266.933594 616.605469 C 263.261719 592.421875 269.382812 565.789062 274.078125 542.117188 C 277.34375 525.484375 281.019531 508.957031 285.40625 492.628906 C 271.015625 498.75 254.789062 500.996094 241.421875 491.300781 C 232.238281 484.773438 226.625 474.875 226.316406 463.546875 C 226.011719 448.140625 234.277344 433.445312 243.15625 421.507812 C 258.261719 401.101562 278.160156 384.46875 298.46875 369.46875 C 300.101562 368.242188 301.632812 371 300.101562 372.222656 C 279.078125 387.835938 258.054688 405.285156 243.15625 427.019531 C 229.277344 447.222656 220.808594 477.628906 247.648438 491.507812 C 271.527344 503.851562 302.347656 482.425781 319.289062 466.40625 C 320.714844 464.976562 322.960938 467.222656 321.53125 468.648438 C 311.941406 477.730469 300.613281 485.589844 288.671875 491.199219 C 288.875 491.507812 288.875 491.914062 288.773438 492.324219 C 284.285156 509.058594 280.507812 525.996094 277.140625 543.035156 C 272.648438 565.789062 267.242188 590.585938 269.792969 613.851562 C 272.039062 634.667969 295.507812 643.035156 313.164062 647.832031 C 333.574219 653.339844 358.984375 657.011719 379.398438 649.566406 C 392.152344 644.972656 395.929688 633.136719 400.214844 621.097656 C 402.867188 613.648438 405.625 605.382812 405.625 597.421875 C 405.625 597.320312 405.625 597.21875 405.625 597.015625 C 405.929688 595.382812 408.6875 595.484375 408.789062 597.320312 C 408.890625 608.238281 413.378906 619.769531 417.667969 629.667969 C 420.320312 635.789062 422.667969 642.421875 428.484375 646.300781 C 432.257812 648.851562 436.75 650.175781 441.136719 651.199219 C 463.078125 656.300781 488.082031 652.421875 509.105469 645.382812 C 518.902344 642.117188 529.105469 637.726562 536.761719 630.585938 C 543.597656 624.15625 544.824219 616.300781 545.128906 607.21875 C 545.742188 582.832031 540.640625 558.035156 535.636719 534.261719 C 532.679688 520.179688 529.515625 506.097656 525.738281 492.117188 C 525.636719 491.914062 525.636719 491.710938 525.738281 491.507812 C 513.1875 485.488281 501.554688 476.40625 493.082031 468.445312 C 491.652344 467.015625 493.796875 464.875 495.328125 466.199219 C 503.695312 474.058594 513.390625 480.894531 523.496094 486.300781 C 538.089844 494.058594 556.457031 499.261719 571.050781 488.75 C 580.441406 482.015625 585.132812 471.507812 584.316406 460.078125 C 583.195312 444.363281 574.011719 429.671875 564.519531 417.628906 C 549.722656 398.753906 531.148438 383.039062 511.960938 368.855469 C 510.328125 367.632812 511.960938 364.976562 513.59375 366.101562 C 536.148438 382.835938 558.5 401.710938 574.011719 425.386719 C 587.992188 447.019531 596.257812 479.566406 568.398438 494.261719 Z M 364.804688 282.9375 C 369.703125 281.410156 372.761719 277.53125 371.742188 274.164062 C 370.722656 270.898438 365.925781 269.46875 361.027344 271 C 356.128906 272.53125 353.066406 276.410156 354.085938 279.777344 C 355.109375 283.144531 359.90625 284.46875 364.804688 282.9375 Z M 380.007812 314.671875 C 377.96875 314.980469 378.886719 318.039062 380.824219 317.734375 C 392.867188 315.589844 400.929688 306.101562 404.195312 294.878906 C 404.5 294.878906 404.910156 294.878906 405.214844 294.777344 C 408.582031 306 416.542969 315.589844 428.6875 317.734375 C 430.625 318.039062 431.546875 315.082031 429.503906 314.671875 C 418.175781 312.734375 410.828125 303.550781 407.972656 293.042969 C 410.320312 290.898438 413.378906 287.429688 415.320312 282.226562 C 416.339844 279.570312 414.296875 276.714844 411.542969 276.714844 L 397.050781 276.714844 C 394.195312 276.714844 392.253906 279.570312 393.277344 282.226562 C 395.417969 288.042969 398.886719 291.613281 401.335938 293.652344 C 398.378906 303.960938 391.132812 312.734375 380.007812 314.671875 Z M 453.792969 521.300781 C 468.792969 493.140625 469.101562 457.015625 453.179688 429.160156 C 440.730469 407.324219 416.644531 391.816406 391.03125 399.160156 C 364.089844 406.917969 348.476562 434.875 344.597656 460.996094 C 340.515625 489.058594 348.066406 521.402344 370.109375 540.6875 C 395.316406 562.730469 428.789062 555.382812 448.28125 529.875 C 449.507812 528.34375 446.75 526.710938 445.527344 528.34375 C 427.972656 551.199219 397.867188 558.953125 374.394531 540.179688 C 353.375 523.445312 345.105469 494.464844 346.945312 468.546875 C 348.78125 443.546875 360.925781 416.40625 384.5 404.976562 C 407.972656 393.753906 433.179688 405.183594 447.160156 425.488281 C 465.835938 452.832031 466.34375 490.894531 451.039062 519.769531 C 450.117188 521.507812 452.875 523.136719 453.792969 521.300781 Z M 452.058594 279.777344 C 453.078125 276.511719 450.015625 272.53125 445.117188 271 C 440.21875 269.46875 435.421875 270.898438 434.402344 274.164062 C 433.382812 277.429688 436.445312 281.410156 441.34375 282.9375 C 446.242188 284.46875 451.039062 283.042969 452.058594 279.777344 Z M 336.332031 376.40625 C 338.269531 377.019531 339.085938 373.957031 337.148438 373.34375 C 319.289062 367.835938 300.816406 361.816406 286.527344 349.164062 C 266.324219 331.101562 262.445312 304.164062 265.8125 278.449219 C 266.933594 269.980469 268.667969 261.714844 271.324219 253.550781 C 273.363281 247.328125 277.445312 241.308594 279.078125 235.183594 C 279.996094 231.613281 278.261719 228.757812 277.140625 224.980469 C 275.203125 218.347656 273.671875 211.613281 273.058594 204.777344 C 271.832031 189.980469 275.40625 175.492188 287.140625 165.59375 C 300.203125 154.675781 317.347656 147.535156 334.492188 150.695312 C 359.800781 155.289062 376.84375 177.941406 384.804688 200.898438 C 385.113281 201.714844 385.824219 202.125 386.746094 202.023438 C 396.4375 200.1875 410.113281 197.429688 419.402344 201.820312 C 420.320312 202.226562 421.339844 201.921875 421.75 200.898438 C 428.890625 180.289062 443.078125 160.1875 464.304688 152.738281 C 493.898438 142.328125 531.863281 163.351562 533.496094 195.796875 C 533.800781 202.632812 532.984375 209.371094 531.554688 216 C 530.433594 221.105469 527.167969 227.125 526.761719 232.125 C 526.554688 235.492188 529.003906 238.449219 530.433594 241.613281 C 533.902344 249.164062 536.351562 257.226562 538.191406 265.386719 C 544.210938 292.121094 544.109375 323.039062 524.71875 344.367188 C 510.226562 360.285156 489.203125 367.324219 469.304688 373.34375 C 467.367188 373.957031 468.183594 377.019531 470.121094 376.40625 C 489.714844 370.386719 510.023438 363.652344 524.820312 348.753906 C 545.128906 328.550781 547.375 299.164062 542.78125 272.226562 C 541.25 263.347656 539.007812 254.675781 535.84375 246.308594 C 534.820312 243.550781 533.597656 240.796875 532.371094 238.144531 C 530.636719 234.574219 529.921875 234.164062 530.738281 230.695312 C 534.003906 217.125 538.191406 204.675781 536.148438 190.390625 C 532.066406 161.613281 498.695312 142.535156 471.140625 147.636719 C 445.425781 152.433594 427.769531 174.980469 419.195312 198.449219 C 409.605469 194.777344 397.253906 196.820312 387.355469 198.757812 C 380.007812 178.246094 366.128906 158.960938 345.515625 150.695312 C 319.59375 140.1875 282.550781 153.65625 272.648438 180.796875 C 268.058594 193.453125 269.382812 207.738281 272.648438 220.59375 C 273.570312 224.0625 274.894531 227.328125 275.710938 230.796875 C 276.425781 233.65625 276.324219 233.65625 274.996094 236.410156 C 271.324219 243.859375 268.464844 251.714844 266.324219 259.675781 C 259.179688 286.917969 257.953125 319.46875 276.222656 342.734375 C 291.019531 361.609375 314.289062 369.671875 336.332031 376.40625 Z M 336.332031 376.40625 " fill-opacity="1" fill-rule="nonzero"/></svg>